<svg width="1440" height="2029" viewBox="0 0 1440 2029" fill="none" xmlns="http://www.w3.org/2000/svg">
<path opacity="0.17" d="M1146.3 87L841 393L955 381L1236 87H1146.3Z" fill="#FFB75E"/>
<path opacity="0.17" d="M757.5 95L401.5 374L581.5 383L915 95H757.5Z" fill="#D1D1D1"/>
<path opacity="0.11" d="M1472 643L720 1397V975.112L1051.22 643H1472Z" fill="url(#paint0_linear_362_56479)" fill-opacity="0.51"/>
<path opacity="0.11" d="M1475.3 1018L1170 1324H1345.82L1648 1021.13L1475.3 1018Z" fill="#FFB75E" fill-opacity="0.82"/>
<path opacity="0.17" d="M1599.98 989L1312 1277H1346.43L1510.53 1112.87H1594.31L1685 1022.18L1599.98 989Z" fill="#5C5C5C" fill-opacity="0.29"/>
<path opacity="0.11" d="M871 926L158 1641H228.712L868.312 999.606L871 926Z" fill="#5C5C5C" fill-opacity="0.25"/>
<path opacity="0.11" d="M200 2029L821.887 1407H1130L508.113 2029H200Z" fill="#5C5C5C" fill-opacity="0.29"/>
<path opacity="0.17" d="M536 652.668L336 852V771.208H402.672L531.304 643L536 652.668Z" fill="#5C5C5C" fill-opacity="0.29"/>
<path opacity="0.11" d="M706 1658.47L1170 1194V1382.26H1087.23L788.775 1681L706 1658.47Z" fill="#5C5C5C" fill-opacity="0.29"/>
<path opacity="0.11" d="M527.3 702L222 1008H397.82L700 705.128L527.3 702Z" fill="#FFB75E" fill-opacity="0.61"/>
<path opacity="0.17" d="M-54.6996 759L-360 1065H-184.18L118 762.128L-54.6996 759Z" fill="#FFB75E"/>
<path opacity="0.11" d="M632 1587V1368L422 1577.31L632 1587Z" fill="#FFB75E"/>
<path opacity="0.11" d="M990 662L671.839 982H498L816.177 662H990Z" fill="#FFB75E" fill-opacity="0.61"/>
<path opacity="0.11" d="M651.976 673L364 961H398.428L562.529 796.868H646.306L737 706.183L651.976 673Z" fill="#5C5C5C" fill-opacity="0.29"/>
<path opacity="0.11" d="M69.9761 730L-218 1018H-183.572L-19.4706 853.868H64.3057L155 763.183L69.9761 730Z" fill="#5C5C5C" fill-opacity="0.29"/>
<path opacity="0.17" d="M1391.75 898.171L704.342 1585.58L707.784 1589.02L1395.19 901.613L1391.75 898.171Z" fill="#FFB75E"/>
<path opacity="0.17" d="M96 1614.57L99.4334 1618L464 1253.87V1247L96 1614.57Z" fill="#FFB75E"/>
<path opacity="0.17" d="M96 1587.57L99.4334 1591L464 1226.86V1220L96 1587.57Z" fill="#FFB75E"/>
<path opacity="0.17" d="M96 1561.56L99.4334 1565L464 1199.88V1193L96 1561.56Z" fill="#FFB75E"/>
<path opacity="0.17" d="M96 1533.56L99.4334 1537L464 1171.89V1165L96 1533.56Z" fill="#FFB75E"/>
<path opacity="0.17" d="M96 1506.56L99.4334 1510L464 1144.88V1138L96 1506.56Z" fill="#FFB75E"/>
<path d="M-184.949 1181.6L-130.643 1102.83C-129.34 1100.94 -126.401 1102.38 -127.088 1104.57L-169.206 1238.69C-169.907 1240.92 -166.863 1242.34 -165.609 1240.36L-58.2024 1071.22C-56.9486 1069.24 -53.9052 1070.66 -54.6059 1072.89L-120.944 1284.14C-121.656 1286.4 -118.525 1287.8 -117.315 1285.75L9.45747 1071.49C10.7135 1069.37 13.9487 1070.96 13.0372 1073.25L-82.171 1312.66C-83.0839 1314.96 -79.8395 1316.54 -78.5881 1314.41L52.8457 1090.69L-33.4137 1277.67C-34.4185 1279.85 -31.437 1281.63 -29.9976 1279.71L59.2486 1160.72C60.5979 1158.92 63.4304 1160.38 62.7567 1162.52L20.3351 1297.61C19.631 1299.85 22.7004 1301.26 23.9415 1299.27L80.143 1208.9C81.3841 1206.91 84.4535 1208.32 83.7494 1210.56L61.2735 1282.13" stroke="#FFB75E" stroke-width="3" stroke-linecap="round"/>
<path d="M1127.05 707.597L1181.36 628.834C1182.66 626.945 1185.6 628.379 1184.91 630.568L1142.79 764.689C1142.09 766.921 1145.14 768.335 1146.39 766.361L1253.8 597.216C1255.05 595.241 1258.09 596.656 1257.39 598.887L1191.06 810.137C1190.34 812.404 1193.48 813.799 1194.69 811.754L1321.46 597.492C1322.71 595.369 1325.95 596.958 1325.04 599.25L1229.83 838.66C1228.92 840.956 1232.16 842.543 1233.41 840.412L1364.85 616.688L1278.59 803.669C1277.58 805.848 1280.56 807.626 1282 805.707L1371.25 686.724C1372.6 684.925 1375.43 686.378 1374.76 688.523L1332.34 823.612C1331.63 825.854 1334.7 827.263 1335.94 825.267L1392.14 734.902C1393.38 732.907 1396.45 734.316 1395.75 736.558L1373.27 808.131" stroke="#FFB75E" stroke-width="3" stroke-linecap="round"/>
<path d="M88.6379 127.722L125.084 74.8623C126.386 72.9731 129.326 74.4075 128.639 76.5968L101.15 164.132C100.449 166.364 103.493 167.778 104.747 165.803L176.42 52.9322C177.674 50.9577 180.717 52.372 180.016 54.6035L135.654 195.872C134.942 198.139 138.073 199.535 139.284 197.49L223.122 55.7906C224.378 53.6676 227.614 55.256 226.702 57.548L164.521 213.91C163.608 216.205 166.852 217.792 168.104 215.662L257.748 63.0708L198.685 191.098C197.681 193.277 200.662 195.055 202.101 193.136L260.277 115.576C261.627 113.777 264.459 115.23 263.785 117.375L235.993 205.878C235.289 208.12 238.358 209.529 239.6 207.533L274.753 151.011C275.994 149.015 279.063 150.424 278.359 152.667L263.741 199.217" stroke="#FFB75E" stroke-width="3" stroke-linecap="round"/>
<path d="M1239.23 134.842L1261.26 102.895C1262.56 101.006 1265.5 102.441 1264.81 104.63L1249.13 154.555C1248.43 156.787 1251.48 158.201 1252.73 156.227L1295.56 88.7862C1296.81 86.8116 1299.85 88.226 1299.15 90.4575L1272.53 175.23C1271.82 177.497 1274.95 178.893 1276.16 176.847L1325.34 93.729C1326.6 91.6061 1329.83 93.1945 1328.92 95.4865L1293.4 184.801C1292.49 187.097 1295.73 188.684 1296.98 186.554L1352.89 91.3901L1315.78 171.823C1314.78 174.001 1317.76 175.78 1319.2 173.861L1352.29 129.742C1353.64 127.943 1356.48 129.396 1355.8 131.541L1339.82 182.434C1339.12 184.676 1342.18 186.085 1343.43 184.09L1361.59 154.889C1362.83 152.894 1365.9 154.303 1365.19 156.545L1356.92 182.895" stroke="#DDDDDD" stroke-width="3" stroke-linecap="round"/>
<defs>
<linearGradient id="paint0_linear_362_56479" x1="1380.34" y1="523.961" x2="827.967" y2="1074.88" gradientUnits="userSpaceOnUse">
<stop stop-color="#FFB75E"/>
<stop offset="1" stop-color="#FFB75E"/>
</linearGradient>
</defs>
</svg>
